<mxfile host="app.diagrams.net" modified="2023-08-17T16:40:52.886Z" agent="Mozilla/5.0 (Macintosh; Intel Mac OS X 10_15_7) AppleWebKit/537.36 (KHTML, like Gecko) Chrome/115.0.0.0 Safari/537.36" etag="KvbxI694xATgoJV02tc9" version="21.6.6" type="device">
  <diagram name="Page-1" id="6rssi9lFLYDIzwEnj2-W">
    <mxGraphModel dx="1164" dy="894" grid="1" gridSize="10" guides="1" tooltips="1" connect="1" arrows="1" fold="1" page="1" pageScale="1" pageWidth="850" pageHeight="1100" math="0" shadow="0">
      <root>
        <mxCell id="0" />
        <mxCell id="1" parent="0" />
        <mxCell id="D1wfr8giKEzb2r5uKM3r-3" style="edgeStyle=orthogonalEdgeStyle;rounded=0;orthogonalLoop=1;jettySize=auto;html=1;" edge="1" parent="1" source="D1wfr8giKEzb2r5uKM3r-1" target="D1wfr8giKEzb2r5uKM3r-4">
          <mxGeometry relative="1" as="geometry">
            <mxPoint x="160" y="400" as="targetPoint" />
          </mxGeometry>
        </mxCell>
        <mxCell id="D1wfr8giKEzb2r5uKM3r-1" value="" style="shape=actor;whiteSpace=wrap;html=1;" vertex="1" parent="1">
          <mxGeometry y="370" width="40" height="60" as="geometry" />
        </mxCell>
        <mxCell id="D1wfr8giKEzb2r5uKM3r-2" value="Developer" style="text;html=1;strokeColor=none;fillColor=none;align=center;verticalAlign=middle;whiteSpace=wrap;rounded=0;" vertex="1" parent="1">
          <mxGeometry y="430" width="60" height="30" as="geometry" />
        </mxCell>
        <mxCell id="D1wfr8giKEzb2r5uKM3r-8" style="edgeStyle=orthogonalEdgeStyle;rounded=0;orthogonalLoop=1;jettySize=auto;html=1;" edge="1" parent="1" source="D1wfr8giKEzb2r5uKM3r-4">
          <mxGeometry relative="1" as="geometry">
            <mxPoint x="290" y="400" as="targetPoint" />
            <Array as="points">
              <mxPoint x="244" y="400" />
              <mxPoint x="244" y="401" />
            </Array>
          </mxGeometry>
        </mxCell>
        <mxCell id="D1wfr8giKEzb2r5uKM3r-4" value="" style="shape=image;html=1;verticalAlign=top;verticalLabelPosition=bottom;labelBackgroundColor=#ffffff;imageAspect=0;aspect=fixed;image=https://cdn4.iconfinder.com/data/icons/miu-black-social-2/60/github-128.png" vertex="1" parent="1">
          <mxGeometry x="110" y="356" width="88" height="88" as="geometry" />
        </mxCell>
        <mxCell id="D1wfr8giKEzb2r5uKM3r-5" value="github" style="text;html=1;strokeColor=none;fillColor=none;align=center;verticalAlign=middle;whiteSpace=wrap;rounded=0;" vertex="1" parent="1">
          <mxGeometry x="120" y="444" width="60" height="30" as="geometry" />
        </mxCell>
        <mxCell id="D1wfr8giKEzb2r5uKM3r-6" value="Jenkins" style="text;html=1;strokeColor=none;fillColor=none;align=center;verticalAlign=middle;whiteSpace=wrap;rounded=0;" vertex="1" parent="1">
          <mxGeometry x="330" y="310" width="140" height="40" as="geometry" />
        </mxCell>
        <mxCell id="D1wfr8giKEzb2r5uKM3r-9" value="" style="endArrow=classic;html=1;rounded=0;entryX=0.5;entryY=0;entryDx=0;entryDy=0;" edge="1" parent="1" target="D1wfr8giKEzb2r5uKM3r-13">
          <mxGeometry width="50" height="50" relative="1" as="geometry">
            <mxPoint x="380" y="350" as="sourcePoint" />
            <mxPoint x="371.304347826087" y="450" as="targetPoint" />
          </mxGeometry>
        </mxCell>
        <mxCell id="D1wfr8giKEzb2r5uKM3r-10" value="" style="endArrow=classic;html=1;rounded=0;entryX=0.75;entryY=0;entryDx=0;entryDy=0;" edge="1" parent="1" target="D1wfr8giKEzb2r5uKM3r-14">
          <mxGeometry width="50" height="50" relative="1" as="geometry">
            <mxPoint x="399.5" y="350" as="sourcePoint" />
            <mxPoint x="399.5" y="420" as="targetPoint" />
          </mxGeometry>
        </mxCell>
        <mxCell id="D1wfr8giKEzb2r5uKM3r-12" value="Deploy" style="text;html=1;strokeColor=none;fillColor=none;align=center;verticalAlign=middle;whiteSpace=wrap;rounded=0;" vertex="1" parent="1">
          <mxGeometry x="528" y="402" width="60" height="30" as="geometry" />
        </mxCell>
        <mxCell id="D1wfr8giKEzb2r5uKM3r-13" value="Build" style="text;html=1;strokeColor=none;fillColor=none;align=center;verticalAlign=middle;whiteSpace=wrap;rounded=0;" vertex="1" parent="1">
          <mxGeometry x="310" y="414" width="60" height="30" as="geometry" />
        </mxCell>
        <mxCell id="D1wfr8giKEzb2r5uKM3r-14" value="Test" style="text;html=1;strokeColor=none;fillColor=none;align=center;verticalAlign=middle;whiteSpace=wrap;rounded=0;" vertex="1" parent="1">
          <mxGeometry x="390" y="420" width="60" height="30" as="geometry" />
        </mxCell>
        <mxCell id="D1wfr8giKEzb2r5uKM3r-18" value="" style="image;sketch=0;aspect=fixed;html=1;points=[];align=center;fontSize=12;image=img/lib/mscae/App_Services.svg;" vertex="1" parent="1">
          <mxGeometry x="760" y="364" width="50" height="50" as="geometry" />
        </mxCell>
        <mxCell id="D1wfr8giKEzb2r5uKM3r-19" value="" style="endArrow=classic;html=1;rounded=0;" edge="1" parent="1">
          <mxGeometry width="50" height="50" relative="1" as="geometry">
            <mxPoint x="590" y="390" as="sourcePoint" />
            <mxPoint x="760" y="390" as="targetPoint" />
          </mxGeometry>
        </mxCell>
        <mxCell id="D1wfr8giKEzb2r5uKM3r-20" value="Productionj" style="text;html=1;strokeColor=none;fillColor=none;align=center;verticalAlign=middle;whiteSpace=wrap;rounded=0;" vertex="1" parent="1">
          <mxGeometry x="660" y="356" width="60" height="30" as="geometry" />
        </mxCell>
        <mxCell id="D1wfr8giKEzb2r5uKM3r-21" value="Web server" style="text;html=1;strokeColor=none;fillColor=none;align=center;verticalAlign=middle;whiteSpace=wrap;rounded=0;" vertex="1" parent="1">
          <mxGeometry x="600" y="414" width="150" height="30" as="geometry" />
        </mxCell>
        <mxCell id="D1wfr8giKEzb2r5uKM3r-25" value="" style="sketch=0;outlineConnect=0;fontColor=#232F3E;gradientColor=none;fillColor=#D45B07;strokeColor=none;dashed=0;verticalLabelPosition=bottom;verticalAlign=top;align=center;html=1;fontSize=12;fontStyle=0;aspect=fixed;pointerEvents=1;shape=mxgraph.aws4.deployment;" vertex="1" parent="1">
          <mxGeometry x="540" y="356" width="48" height="46" as="geometry" />
        </mxCell>
        <mxCell id="D1wfr8giKEzb2r5uKM3r-26" value="" style="endArrow=classic;html=1;rounded=0;" edge="1" parent="1">
          <mxGeometry width="50" height="50" relative="1" as="geometry">
            <mxPoint x="425" y="379.75" as="sourcePoint" />
            <mxPoint x="535" y="378.25" as="targetPoint" />
          </mxGeometry>
        </mxCell>
        <mxCell id="D1wfr8giKEzb2r5uKM3r-27" value="Downloaded the zip file and&amp;nbsp; unzipped it. Created a new repository and uploaded the unzipped files" style="text;html=1;strokeColor=none;fillColor=none;align=center;verticalAlign=middle;whiteSpace=wrap;rounded=0;" vertex="1" parent="1">
          <mxGeometry y="420" width="160" height="190" as="geometry" />
        </mxCell>
        <mxCell id="D1wfr8giKEzb2r5uKM3r-34" style="edgeStyle=orthogonalEdgeStyle;rounded=0;orthogonalLoop=1;jettySize=auto;html=1;" edge="1" parent="1" source="D1wfr8giKEzb2r5uKM3r-29" target="D1wfr8giKEzb2r5uKM3r-4">
          <mxGeometry relative="1" as="geometry" />
        </mxCell>
        <mxCell id="D1wfr8giKEzb2r5uKM3r-29" value="Amazon EBS" style="text;html=1;strokeColor=none;fillColor=none;align=center;verticalAlign=middle;whiteSpace=wrap;rounded=0;" vertex="1" parent="1">
          <mxGeometry x="528" y="290" width="60" height="30" as="geometry" />
        </mxCell>
        <mxCell id="D1wfr8giKEzb2r5uKM3r-30" value="Unsuccessful, so went back to github and changed the file name" style="text;html=1;strokeColor=none;fillColor=none;align=center;verticalAlign=middle;whiteSpace=wrap;rounded=0;" vertex="1" parent="1">
          <mxGeometry x="210" y="220" width="290" height="70" as="geometry" />
        </mxCell>
        <mxCell id="D1wfr8giKEzb2r5uKM3r-35" style="edgeStyle=orthogonalEdgeStyle;rounded=0;orthogonalLoop=1;jettySize=auto;html=1;" edge="1" parent="1">
          <mxGeometry relative="1" as="geometry">
            <mxPoint x="180" y="460" as="sourcePoint" />
            <mxPoint x="570" y="430" as="targetPoint" />
          </mxGeometry>
        </mxCell>
        <mxCell id="D1wfr8giKEzb2r5uKM3r-36" value="Deploying for second time" style="text;html=1;strokeColor=none;fillColor=none;align=center;verticalAlign=middle;whiteSpace=wrap;rounded=0;" vertex="1" parent="1">
          <mxGeometry x="198" y="470" width="330" height="40" as="geometry" />
        </mxCell>
      </root>
    </mxGraphModel>
  </diagram>
</mxfile>
